<svg version="1.1"
	 xmlns="http://www.w3.org/2000/svg"
	 x="0px" y="0px" viewBox="0 0 49.4 37.1">
<style>.st0{fill:#f2f2f2}</style>
<path id="path74_1_" class="st0" d="M20.9,35.9l20.7,0c0.1,0,0.3,0,0.4,0v0c3.4,0,6.1-2.8,6.1-6.1
	s-2.8-6.1-6.1-6.1c-0.5,0-1,0.1-1.5,0.2c-0.2,0-0.3,0-0.5-0.1c-0.1-0.1-0.2-0.2-0.3-0.4c-0.7-4.4-4.4-7.5-8.8-7.5
	c-4.9,0-8.9,4-8.9,8.9c0,0.2,0,0.5,0,0.7c0,0.2-0.1,0.4-0.2,0.5s-0.3,0.2-0.5,0.2c-0.2,0-0.4,0-0.5,0c-2.7,0-4.9,2.2-4.9,4.9
	C16,33.7,18.2,35.9,20.9,35.9 M20.9,24.8c0,0,0-0.1,0-0.1c0-5.6,4.5-10.1,10.1-10.1c4.8,0,8.9,3.3,9.9,7.9c0.4-0.1,0.8-0.1,1.1-0.1
	c4,0,7.3,3.3,7.3,7.3c0,4-3.3,7.3-7.3,7.3h0c-0.1,0-2.4,0-5.5,0l-15.7,0c-3.4,0-6.1-2.8-6.1-6.1C14.8,27.6,17.5,24.8,20.9,24.8"/>
<path id="path78_1_" class="st0" d="M8.9,18.7c0-5.4,4.4-9.7,9.7-9.7c3.3,0,6.1,1.4,7.9,4.1
	c0.2,0.3,0.1,0.7-0.2,0.8c-0.3,0.2-0.7,0.1-0.8-0.2c-1.6-2.4-4.1-3.6-6.9-3.6c-4.7,0-8.5,3.8-8.5,8.5c0,2.9,1.5,5.6,3.9,7.2
	c0.3,0.2,0.4,0.6,0.2,0.8c-0.1,0.2-0.3,0.3-0.5,0.3c-0.1,0-0.2,0-0.3-0.1C10.6,25.1,8.9,22.1,8.9,18.7"/>
<path id="path82_1_" class="st0" d="M18.5,6c-0.3,0-0.6-0.3-0.6-0.6V0.6c0-0.3,0.3-0.6,0.6-0.6
	c0.3,0,0.6,0.3,0.6,0.6v4.8C19.1,5.7,18.9,6,18.5,6"/>
<path id="path86_1_" class="st0" d="M12,7.9C11.9,8,11.7,8,11.6,8c-0.2,0-0.4-0.1-0.5-0.3L8.6,3.6
	C8.4,3.3,8.5,3,8.8,2.8C9.1,2.6,9.4,2.7,9.6,3l2.5,4.1C12.3,7.3,12.2,7.7,12,7.9"/>
<path id="path90_1_" class="st0" d="M7,13c-0.1,0-0.2,0-0.3-0.1l-4.2-2.3C2.1,10.5,2,10.1,2.2,9.8
	C2.4,9.5,2.7,9.4,3,9.6l4.2,2.3c0.3,0.2,0.4,0.5,0.2,0.8C7.4,12.8,7.2,13,7,13"/>
<path id="path94_1_" class="st0" d="M0.6,17.9L0.6,17.9l4.8,0c0.3,0,0.6,0.3,0.6,0.6
	c0,0.3-0.3,0.6-0.6,0.6h0l-4.8,0c-0.3,0-0.6-0.3-0.6-0.6C0,18.2,0.3,17.9,0.6,17.9"/>
<path id="path98_1_" class="st0" d="M2.5,26.6l4.2-2.3c0.3-0.2,0.7-0.1,0.8,0.2
	c0.2,0.3,0.1,0.7-0.2,0.8l-4.2,2.3c-0.1,0-0.2,0.1-0.3,0.1c-0.2,0-0.4-0.1-0.5-0.3C2.1,27.1,2.2,26.8,2.5,26.6"/>
<path id="path102_1_" class="st0" d="M34.6,10.5l-4.2,2.3c-0.1,0.1-0.2,0.1-0.3,0.1
	c-0.2,0-0.4-0.1-0.5-0.3c-0.2-0.3-0.1-0.7,0.2-0.8L34,9.4c0.3-0.2,0.7-0.1,0.8,0.2C35,9.9,34.9,10.3,34.6,10.5"/>
<path id="path106_1_" class="st0" d="M11.1,29.4c0.2-0.3,0.5-0.4,0.8-0.2c0.3,0.2,0.4,0.5,0.2,0.8
	l-2.6,4.1c-0.1,0.2-0.3,0.3-0.5,0.3c-0.1,0-0.2,0-0.3-0.1c-0.3-0.2-0.4-0.5-0.2-0.8L11.1,29.4L11.1,29.4z"/>
<path id="path110_1_" class="st0" d="M26,7.7C25.9,7.9,25.7,8,25.5,8c-0.1,0-0.2,0-0.3-0.1
	c-0.3-0.2-0.4-0.5-0.2-0.8L27.6,3c0.2-0.3,0.5-0.4,0.8-0.2c0.3,0.2,0.4,0.5,0.2,0.8L26,7.7L26,7.7z"/>
</svg>
