<!-- Generator: Adobe Illustrator 22.0.0, SVG Export Plug-In  -->
<svg version="1.1"
	 xmlns="http://www.w3.org/2000/svg"
	 x="0px" y="0px" viewBox="0 0 48.8 41.5">
<style type="text/css">
	.st0{fill:#f2f2f2;}
</style>
<path id="path230_1_" class="st0" d="M17.4,39.2c-0.2-0.2-0.4-0.2-0.6,0l-0.5,0.5l-0.5-0.5
	c-0.2-0.2-0.4-0.2-0.6,0c-0.2,0.2-0.2,0.4,0,0.6l0.5,0.5l-0.5,0.5c-0.2,0.2-0.2,0.4,0,0.6c0.1,0.1,0.2,0.1,0.3,0.1s0.2,0,0.3-0.1
	l0.5-0.5l0.5,0.5c0.1,0.1,0.2,0.1,0.3,0.1c0.1,0,0.2,0,0.3-0.1c0.2-0.2,0.2-0.5,0-0.6l-0.5-0.5l0.5-0.5
	C17.6,39.7,17.6,39.4,17.4,39.2"/>
<path id="path234_1_" class="st0" d="M32,39.2c-0.2-0.2-0.4-0.2-0.6,0l-0.5,0.5l-0.5-0.5
	c-0.2-0.2-0.4-0.2-0.6,0c-0.2,0.2-0.2,0.4,0,0.6l0.5,0.5l-0.5,0.5c-0.2,0.2-0.2,0.4,0,0.6c0.1,0.1,0.2,0.1,0.3,0.1
	c0.1,0,0.2,0,0.3-0.1l0.5-0.5l0.5,0.5c0.1,0.1,0.2,0.1,0.3,0.1s0.2,0,0.3-0.1c0.2-0.2,0.2-0.5,0-0.6l-0.5-0.5l0.5-0.5
	C32.2,39.7,32.2,39.4,32,39.2"/>
<path id="path250_1_" class="st0" d="M14.1,31.9c-0.3-0.2-0.7,0-0.8,0.3l-4.1,8.3
	c-0.2,0.3,0,0.7,0.3,0.8c0.1,0,0.2,0.1,0.3,0.1c0.2,0,0.4-0.1,0.5-0.3l4.1-8.3C14.5,32.4,14.4,32.1,14.1,31.9"/>
<path id="path258_1_" class="st0" d="M27.9,31.9c-0.3-0.2-0.7,0-0.8,0.3l-4.1,8.3
	c-0.2,0.3,0,0.7,0.3,0.8c0.1,0,0.2,0.1,0.3,0.1c0.2,0,0.4-0.1,0.5-0.3l4.1-8.3C28.3,32.4,28.2,32.1,27.9,31.9"/>
<path id="path266_1_" class="st0" d="M41.7,31.9c-0.3-0.2-0.7,0-0.8,0.3l-4.1,8.3
	c-0.2,0.3,0,0.7,0.3,0.8c0.1,0,0.2,0.1,0.3,0.1c0.2,0,0.4-0.1,0.6-0.3l4.1-8.3C42.1,32.4,42,32.1,41.7,31.9"/>
<path id="path290_1_" class="st0" d="M16.6,28.7H40c0.2,0,0.3,0,0.5,0v0c3.8,0,6.9-3.1,6.9-6.9
	s-3.1-6.9-6.9-6.9c-0.5,0-1.1,0.1-1.7,0.2c-0.2,0-0.4,0-0.5-0.1c-0.2-0.1-0.3-0.3-0.3-0.5c-0.8-4.9-5-8.5-9.9-8.5
	c-5.6,0-10.1,4.5-10.1,10.1c0,0.3,0,0.5,0,0.8c0,0.2-0.1,0.4-0.2,0.5c-0.1,0.1-0.3,0.2-0.5,0.2c-0.2,0-0.4,0-0.6,0
	c-3.1,0-5.6,2.5-5.6,5.6S13.6,28.7,16.6,28.7 M16.6,16.2c0,0,0-0.1,0-0.1c0-6.3,5.1-11.4,11.4-11.4c5.4,0,10,3.7,11.2,9
	c0.4-0.1,0.9-0.1,1.3-0.1c4.6,0,8.3,3.7,8.3,8.3S45.1,30,40.5,30h-6.2H16.6c-3.8,0-6.9-3.1-6.9-6.9C9.7,19.3,12.8,16.2,16.6,16.2"/>
<path id="path294_1_" class="st0" d="M8.3,8.9c0.4,0,0.9,0,1.3,0.1c1.1-5.2,5.7-9,11.2-9
	c2.4,0,4.6,0.7,6.6,2.1c0.3,0.2,0.4,0.6,0.2,0.9c-0.2,0.3-0.6,0.4-0.9,0.2c-1.7-1.2-3.7-1.8-5.8-1.8c-5,0-9.2,3.6-9.9,8.5
	c0,0.2-0.1,0.4-0.3,0.5c-0.2,0.1-0.4,0.1-0.5,0.1c-0.6-0.1-1.1-0.2-1.7-0.2c-3.8,0-6.9,3.1-6.9,6.9c0,3.6,2.7,6.5,6.2,6.9
	c0.4,0,0.6,0.4,0.6,0.7c0,0.3-0.3,0.6-0.7,0.6c0,0,0,0-0.1,0C3.2,25,0,21.4,0,17.1C0,12.6,3.7,8.9,8.3,8.9"/>
</svg>
