<svg version="1.1"
  xmlns="http://www.w3.org/2000/svg"
	x="0px" y="0px" viewBox="0 0 43.2 43.2"
>
<style>.st0{fill:#f2f2f2}</style>
<path id="path22_1_" class="st0" d="M21.6,31.6c-5.5,0-9.9-4.5-9.9-9.9c0-5.5,4.5-9.9,9.9-9.9
	c5.5,0,9.9,4.5,9.9,9.9C31.5,27.2,27.1,31.6,21.6,31.6 M21.6,10.3c-6.3,0-11.3,5.1-11.3,11.3S15.4,33,21.6,33
	c6.3,0,11.3-5.1,11.3-11.3S27.9,10.3,21.6,10.3"/>
<path id="path26_1_" class="st0" d="M21.6,7c0.4,0,0.7-0.3,0.7-0.7V0.7C22.3,0.3,22,0,21.6,0
	s-0.7,0.3-0.7,0.7v5.6C20.9,6.7,21.2,7,21.6,7"/>
<path id="path30_1_" class="st0" d="M21.6,36.2c-0.4,0-0.7,0.3-0.7,0.7v5.6c0,0.4,0.3,0.7,0.7,0.7
	s0.7-0.3,0.7-0.7v-5.6C22.3,36.5,22,36.2,21.6,36.2"/>
<path id="path34_1_" class="st0" d="M29.3,9.2c0.1,0.1,0.2,0.1,0.4,0.1c0.2,0,0.5-0.1,0.6-0.3
	l3-4.8c0.2-0.3,0.1-0.8-0.2-1c-0.3-0.2-0.8-0.1-1,0.2l-3,4.8C28.9,8.6,29,9,29.3,9.2"/>
<path id="path38_1_" class="st0" d="M13.9,34c-0.3-0.2-0.8-0.1-1,0.2L10,39
	c-0.2,0.3-0.1,0.8,0.2,1c0.1,0.1,0.2,0.1,0.4,0.1c0.2,0,0.5-0.1,0.6-0.3l3-4.8C14.4,34.6,14.3,34.2,13.9,34"/>
<path id="path42_1_" class="st0" d="M35.1,15.1c0.1,0,0.2,0,0.3-0.1l4.9-2.6
	c0.3-0.2,0.5-0.6,0.3-1c-0.2-0.3-0.6-0.5-0.9-0.3l-4.9,2.6c-0.3,0.2-0.5,0.6-0.3,1C34.6,15,34.8,15.1,35.1,15.1"/>
<path id="path46_1_" class="st0" d="M7.8,28.2l-4.9,2.6c-0.3,0.2-0.5,0.6-0.3,1
	c0.1,0.2,0.4,0.4,0.6,0.4c0.1,0,0.2,0,0.3-0.1l4.9-2.6c0.3-0.2,0.5-0.6,0.3-1C8.6,28.2,8.1,28,7.8,28.2"/>
<path id="path50_1_" class="st0" d="M42.5,20.9L42.5,20.9l-5.6,0c-0.4,0-0.7,0.3-0.7,0.7
	c0,0.4,0.3,0.7,0.7,0.7h0l5.6,0c0.4,0,0.7-0.3,0.7-0.7C43.2,21.2,42.9,20.9,42.5,20.9"/>
<path id="path54_1_" class="st0" d="M7,21.7C7,21.3,6.7,21,6.3,21h0l-5.6,0C0.3,21,0,21.3,0,21.7
	c0,0.4,0.3,0.7,0.7,0.7h0l5.6,0C6.7,22.4,7,22,7,21.7"/>
<path id="path58_1_" class="st0" d="M40.3,31l-4.9-2.7c-0.3-0.2-0.8-0.1-1,0.3
	c-0.2,0.3-0.1,0.8,0.3,1l4.9,2.7c0.1,0.1,0.2,0.1,0.3,0.1c0.2,0,0.5-0.1,0.6-0.4C40.8,31.6,40.6,31.2,40.3,31"/>
<path id="path62_1_" class="st0" d="M8.5,13.6l-4.9-2.7c-0.3-0.2-0.8-0.1-1,0.3
	c-0.2,0.3-0.1,0.8,0.3,1l4.9,2.7C8,14.9,8.1,15,8.2,15c0.2,0,0.5-0.1,0.6-0.4C9,14.2,8.9,13.8,8.5,13.6"/>
<path id="path66_1_" class="st0" d="M30.3,34.2c-0.2-0.3-0.6-0.4-1-0.2c-0.3,0.2-0.4,0.6-0.2,1
	l3,4.8c0.1,0.2,0.4,0.3,0.6,0.3c0.1,0,0.3,0,0.4-0.1c0.3-0.2,0.4-0.6,0.2-1L30.3,34.2L30.3,34.2z"/>
<path id="path70_1_" class="st0" d="M12.9,9c0.1,0.2,0.4,0.3,0.6,0.3c0.1,0,0.3,0,0.4-0.1
	c0.3-0.2,0.4-0.6,0.2-1l-3-4.8c-0.2-0.3-0.6-0.4-1-0.2c-0.3,0.2-0.4,0.6-0.2,1C9.9,4.2,12.9,9,12.9,9z"/>
</svg>
